<svg width="50" height="50" viewBox="0 0 50 50" fill="none" xmlns="http://www.w3.org/2000/svg">
<path d="M45.101 34.0966L38.0312 33.2894C36.3333 33.0946 34.6633 33.6791 33.4665 34.8759L28.345 39.9974C20.4681 35.9893 14.0106 29.5597 10.0026 21.6548L15.1518 16.5055C16.3487 15.3087 16.9332 13.6386 16.7383 11.9408L15.9312 4.92661C15.5972 2.11538 13.2313 0 10.3922 0H5.57699C2.43177 0 -0.184612 2.61639 0.0102247 5.76163C1.48542 29.5318 20.4959 48.5146 44.2381 49.9898C47.3834 50.1846 49.9997 47.5682 49.9997 44.423V39.6077C50.0276 36.7965 47.9122 34.4306 45.101 34.0966Z" fill="currentColor"/>
</svg>
