<svg width="50" height="50" viewBox="0 0 50 50" fill="none" xmlns="http://www.w3.org/2000/svg">
<path d="M26.795 0.0641979C11.5667 -1.01103 -1.01103 11.5667 0.0641979 26.795C0.964393 40.0228 12.5169 50 25.7698 50H34.9967C36.372 50 37.4973 48.8748 37.4973 47.4995C37.4973 46.1242 36.372 44.9989 34.9967 44.9989H25.8198C16.4927 44.9989 7.9409 38.9476 5.6154 29.9207C1.88959 15.4175 15.3925 1.88959 29.8956 5.6404C38.9476 7.9409 44.9989 16.4927 44.9989 25.8198V28.5704C44.9989 30.5458 43.2235 32.4962 41.2481 32.4962C39.2727 32.4962 37.4973 30.5458 37.4973 28.5704V25.4447C37.4973 19.1683 33.0463 13.5171 26.845 12.6419C18.3431 11.4167 11.1666 18.7682 12.6919 27.3201C13.5421 32.0961 17.2679 36.047 21.9939 37.1722C26.5949 38.2475 30.9709 36.7721 33.8465 33.8465C36.072 36.8972 40.5229 38.4975 44.5988 36.8722C47.9496 35.5469 50 32.1211 50 28.5203V25.7948C50 12.5169 40.0228 0.964393 26.795 0.0641979ZM24.9946 32.4962C20.8437 32.4962 17.493 29.1455 17.493 24.9946C17.493 20.8437 20.8437 17.493 24.9946 17.493C29.1455 17.493 32.4962 20.8437 32.4962 24.9946C32.4962 29.1455 29.1455 32.4962 24.9946 32.4962Z" fill="#015E4B"/>
</svg>
